<mxfile host="app.diagrams.net" modified="2023-07-10T10:30:51.913Z" agent="Mozilla/5.0 (Windows NT 10.0; Win64; x64) AppleWebKit/537.36 (KHTML, like Gecko) Chrome/114.0.0.0 Safari/537.36" etag="XCPZdUstFU38OGgh-bJf" version="21.6.1" type="github">
  <diagram id="C5RBs43oDa-KdzZeNtuy" name="Page-1">
    <mxGraphModel dx="1841" dy="1076" grid="1" gridSize="10" guides="1" tooltips="1" connect="1" arrows="1" fold="1" page="1" pageScale="1" pageWidth="827" pageHeight="1169" math="0" shadow="0">
      <root>
        <mxCell id="WIyWlLk6GJQsqaUBKTNV-0" />
        <mxCell id="WIyWlLk6GJQsqaUBKTNV-1" parent="WIyWlLk6GJQsqaUBKTNV-0" />
        <mxCell id="3gCZqKBASgWrl0syq8tZ-24" style="edgeStyle=orthogonalEdgeStyle;rounded=0;orthogonalLoop=1;jettySize=auto;html=1;entryX=0.5;entryY=0;entryDx=0;entryDy=0;" edge="1" parent="WIyWlLk6GJQsqaUBKTNV-1" source="WIyWlLk6GJQsqaUBKTNV-6" target="3gCZqKBASgWrl0syq8tZ-14">
          <mxGeometry relative="1" as="geometry" />
        </mxCell>
        <mxCell id="3gCZqKBASgWrl0syq8tZ-27" value="Yes" style="edgeLabel;html=1;align=center;verticalAlign=middle;resizable=0;points=[];" vertex="1" connectable="0" parent="3gCZqKBASgWrl0syq8tZ-24">
          <mxGeometry x="-0.3704" y="-1" relative="1" as="geometry">
            <mxPoint as="offset" />
          </mxGeometry>
        </mxCell>
        <mxCell id="3gCZqKBASgWrl0syq8tZ-25" style="edgeStyle=orthogonalEdgeStyle;rounded=0;orthogonalLoop=1;jettySize=auto;html=1;entryX=1;entryY=0.5;entryDx=0;entryDy=0;" edge="1" parent="WIyWlLk6GJQsqaUBKTNV-1" source="WIyWlLk6GJQsqaUBKTNV-6" target="3gCZqKBASgWrl0syq8tZ-22">
          <mxGeometry relative="1" as="geometry">
            <Array as="points">
              <mxPoint x="614.94" y="510" />
              <mxPoint x="614.94" y="910" />
            </Array>
          </mxGeometry>
        </mxCell>
        <mxCell id="3gCZqKBASgWrl0syq8tZ-26" value="No" style="edgeLabel;html=1;align=center;verticalAlign=middle;resizable=0;points=[];" vertex="1" connectable="0" parent="3gCZqKBASgWrl0syq8tZ-25">
          <mxGeometry x="-0.0726" y="-1" relative="1" as="geometry">
            <mxPoint as="offset" />
          </mxGeometry>
        </mxCell>
        <mxCell id="WIyWlLk6GJQsqaUBKTNV-6" value="Run analysis with postprocessing" style="rhombus;whiteSpace=wrap;html=1;shadow=0;fontFamily=Helvetica;fontSize=12;align=center;strokeWidth=1;spacing=6;spacingTop=-4;" parent="WIyWlLk6GJQsqaUBKTNV-1" vertex="1">
          <mxGeometry x="284.94" y="470" width="160" height="80" as="geometry" />
        </mxCell>
        <mxCell id="3gCZqKBASgWrl0syq8tZ-8" style="edgeStyle=orthogonalEdgeStyle;rounded=0;orthogonalLoop=1;jettySize=auto;html=1;endArrow=block;endFill=0;" edge="1" parent="WIyWlLk6GJQsqaUBKTNV-1" source="WIyWlLk6GJQsqaUBKTNV-10" target="3gCZqKBASgWrl0syq8tZ-3">
          <mxGeometry relative="1" as="geometry" />
        </mxCell>
        <mxCell id="3gCZqKBASgWrl0syq8tZ-42" value="No" style="edgeLabel;html=1;align=center;verticalAlign=middle;resizable=0;points=[];" vertex="1" connectable="0" parent="3gCZqKBASgWrl0syq8tZ-8">
          <mxGeometry x="-0.1428" relative="1" as="geometry">
            <mxPoint as="offset" />
          </mxGeometry>
        </mxCell>
        <mxCell id="3gCZqKBASgWrl0syq8tZ-31" style="edgeStyle=orthogonalEdgeStyle;rounded=0;orthogonalLoop=1;jettySize=auto;html=1;" edge="1" parent="WIyWlLk6GJQsqaUBKTNV-1" source="WIyWlLk6GJQsqaUBKTNV-10" target="3gCZqKBASgWrl0syq8tZ-32">
          <mxGeometry relative="1" as="geometry">
            <mxPoint x="159.9988235294117" y="290" as="targetPoint" />
          </mxGeometry>
        </mxCell>
        <mxCell id="3gCZqKBASgWrl0syq8tZ-43" value="Yes" style="edgeLabel;html=1;align=center;verticalAlign=middle;resizable=0;points=[];" vertex="1" connectable="0" parent="3gCZqKBASgWrl0syq8tZ-31">
          <mxGeometry x="-0.4112" y="-1" relative="1" as="geometry">
            <mxPoint as="offset" />
          </mxGeometry>
        </mxCell>
        <mxCell id="WIyWlLk6GJQsqaUBKTNV-10" value="Set analysis parameters manually" style="rhombus;whiteSpace=wrap;html=1;shadow=0;fontFamily=Helvetica;fontSize=12;align=center;strokeWidth=1;spacing=6;spacingTop=-4;" parent="WIyWlLk6GJQsqaUBKTNV-1" vertex="1">
          <mxGeometry x="254.94" y="140" width="220" height="80" as="geometry" />
        </mxCell>
        <mxCell id="3gCZqKBASgWrl0syq8tZ-5" value="" style="edgeStyle=orthogonalEdgeStyle;rounded=0;orthogonalLoop=1;jettySize=auto;html=1;endArrow=block;endFill=0;" edge="1" parent="WIyWlLk6GJQsqaUBKTNV-1" source="3gCZqKBASgWrl0syq8tZ-3" target="3gCZqKBASgWrl0syq8tZ-4">
          <mxGeometry relative="1" as="geometry" />
        </mxCell>
        <mxCell id="3gCZqKBASgWrl0syq8tZ-21" style="edgeStyle=orthogonalEdgeStyle;rounded=0;orthogonalLoop=1;jettySize=auto;html=1;" edge="1" parent="WIyWlLk6GJQsqaUBKTNV-1" source="3gCZqKBASgWrl0syq8tZ-3" target="WIyWlLk6GJQsqaUBKTNV-6">
          <mxGeometry relative="1" as="geometry" />
        </mxCell>
        <mxCell id="3gCZqKBASgWrl0syq8tZ-3" value="Read config file" style="shape=parallelogram;perimeter=parallelogramPerimeter;whiteSpace=wrap;html=1;fixedSize=1;" vertex="1" parent="WIyWlLk6GJQsqaUBKTNV-1">
          <mxGeometry x="304.94" y="290" width="120" height="60" as="geometry" />
        </mxCell>
        <mxCell id="3gCZqKBASgWrl0syq8tZ-4" value="Error handling" style="rounded=1;whiteSpace=wrap;html=1;" vertex="1" parent="WIyWlLk6GJQsqaUBKTNV-1">
          <mxGeometry x="504.94" y="290" width="120" height="60" as="geometry" />
        </mxCell>
        <mxCell id="3gCZqKBASgWrl0syq8tZ-17" value="" style="edgeStyle=orthogonalEdgeStyle;rounded=0;orthogonalLoop=1;jettySize=auto;html=1;" edge="1" parent="WIyWlLk6GJQsqaUBKTNV-1" source="3gCZqKBASgWrl0syq8tZ-14" target="3gCZqKBASgWrl0syq8tZ-16">
          <mxGeometry relative="1" as="geometry" />
        </mxCell>
        <mxCell id="3gCZqKBASgWrl0syq8tZ-14" value="Selecting regions for visual data processing" style="shape=parallelogram;perimeter=parallelogramPerimeter;whiteSpace=wrap;html=1;fixedSize=1;" vertex="1" parent="WIyWlLk6GJQsqaUBKTNV-1">
          <mxGeometry x="279.94" y="640" width="170" height="60" as="geometry" />
        </mxCell>
        <mxCell id="3gCZqKBASgWrl0syq8tZ-28" style="edgeStyle=orthogonalEdgeStyle;rounded=0;orthogonalLoop=1;jettySize=auto;html=1;" edge="1" parent="WIyWlLk6GJQsqaUBKTNV-1" source="3gCZqKBASgWrl0syq8tZ-16" target="3gCZqKBASgWrl0syq8tZ-22">
          <mxGeometry relative="1" as="geometry" />
        </mxCell>
        <mxCell id="3gCZqKBASgWrl0syq8tZ-16" value="Running analysis" style="shape=process;whiteSpace=wrap;html=1;backgroundOutline=1;" vertex="1" parent="WIyWlLk6GJQsqaUBKTNV-1">
          <mxGeometry x="304.94" y="770" width="120" height="60" as="geometry" />
        </mxCell>
        <mxCell id="3gCZqKBASgWrl0syq8tZ-35" value="" style="edgeStyle=orthogonalEdgeStyle;rounded=0;orthogonalLoop=1;jettySize=auto;html=1;" edge="1" parent="WIyWlLk6GJQsqaUBKTNV-1" source="3gCZqKBASgWrl0syq8tZ-22" target="3gCZqKBASgWrl0syq8tZ-34">
          <mxGeometry relative="1" as="geometry" />
        </mxCell>
        <mxCell id="3gCZqKBASgWrl0syq8tZ-22" value="Postprocessing" style="shape=process;whiteSpace=wrap;html=1;backgroundOutline=1;" vertex="1" parent="WIyWlLk6GJQsqaUBKTNV-1">
          <mxGeometry x="304.94" y="880" width="120" height="60" as="geometry" />
        </mxCell>
        <mxCell id="3gCZqKBASgWrl0syq8tZ-33" style="edgeStyle=orthogonalEdgeStyle;rounded=0;orthogonalLoop=1;jettySize=auto;html=1;exitX=0.477;exitY=1.025;exitDx=0;exitDy=0;exitPerimeter=0;" edge="1" parent="WIyWlLk6GJQsqaUBKTNV-1" source="3gCZqKBASgWrl0syq8tZ-32" target="WIyWlLk6GJQsqaUBKTNV-6">
          <mxGeometry relative="1" as="geometry">
            <mxPoint x="159.9988235294117" y="350" as="sourcePoint" />
            <Array as="points">
              <mxPoint x="162" y="420" />
              <mxPoint x="365" y="420" />
            </Array>
          </mxGeometry>
        </mxCell>
        <mxCell id="3gCZqKBASgWrl0syq8tZ-32" value="Input parameters directly in terminal" style="shape=parallelogram;perimeter=parallelogramPerimeter;whiteSpace=wrap;html=1;fixedSize=1;" vertex="1" parent="WIyWlLk6GJQsqaUBKTNV-1">
          <mxGeometry x="100" y="290" width="130" height="60" as="geometry" />
        </mxCell>
        <mxCell id="3gCZqKBASgWrl0syq8tZ-39" value="" style="edgeStyle=orthogonalEdgeStyle;rounded=0;orthogonalLoop=1;jettySize=auto;html=1;" edge="1" parent="WIyWlLk6GJQsqaUBKTNV-1" source="3gCZqKBASgWrl0syq8tZ-34" target="3gCZqKBASgWrl0syq8tZ-38">
          <mxGeometry relative="1" as="geometry" />
        </mxCell>
        <mxCell id="3gCZqKBASgWrl0syq8tZ-34" value="Write output results, show plots" style="rounded=1;whiteSpace=wrap;html=1;" vertex="1" parent="WIyWlLk6GJQsqaUBKTNV-1">
          <mxGeometry x="304.94" y="1000" width="120" height="40" as="geometry" />
        </mxCell>
        <mxCell id="3gCZqKBASgWrl0syq8tZ-38" value="Stop" style="ellipse;whiteSpace=wrap;html=1;rounded=1;" vertex="1" parent="WIyWlLk6GJQsqaUBKTNV-1">
          <mxGeometry x="324.94" y="1100" width="80" height="40" as="geometry" />
        </mxCell>
        <mxCell id="3gCZqKBASgWrl0syq8tZ-41" style="edgeStyle=orthogonalEdgeStyle;rounded=0;orthogonalLoop=1;jettySize=auto;html=1;entryX=0.5;entryY=0;entryDx=0;entryDy=0;" edge="1" parent="WIyWlLk6GJQsqaUBKTNV-1" source="3gCZqKBASgWrl0syq8tZ-40" target="WIyWlLk6GJQsqaUBKTNV-10">
          <mxGeometry relative="1" as="geometry" />
        </mxCell>
        <mxCell id="3gCZqKBASgWrl0syq8tZ-40" value="Start" style="ellipse;whiteSpace=wrap;html=1;" vertex="1" parent="WIyWlLk6GJQsqaUBKTNV-1">
          <mxGeometry x="319.94" y="60" width="90" height="40" as="geometry" />
        </mxCell>
        <mxCell id="3gCZqKBASgWrl0syq8tZ-44" value="&lt;span style=&quot;color: rgb(33, 37, 41); font-family: &amp;quot;Fira code&amp;quot;, &amp;quot;Fira Mono&amp;quot;, source-code-pro, Menlo, Monaco, Consolas, &amp;quot;Courier New&amp;quot;, monospace; font-size: 15px; font-style: normal; font-variant-ligatures: normal; font-variant-caps: normal; font-weight: 400; letter-spacing: normal; orphans: 2; text-align: left; text-indent: 0px; text-transform: none; widows: 2; word-spacing: 0px; -webkit-text-stroke-width: 0px; background-color: rgb(255, 255, 255); text-decoration-thickness: initial; text-decoration-style: initial; text-decoration-color: initial; float: none; display: inline !important;&quot;&gt;rov-survey&#xa;├── input &#xa;│   ├── config&#xa;│   └── ...*.mov&#xa;├── Run_analysis.exe&#xa;├── Measure_pixels.exe&#xa;└── README.md&lt;/span&gt;" style="text;whiteSpace=wrap;html=1;" vertex="1" parent="WIyWlLk6GJQsqaUBKTNV-1">
          <mxGeometry x="880" y="105" width="210" height="150" as="geometry" />
        </mxCell>
      </root>
    </mxGraphModel>
  </diagram>
</mxfile>
